<?xml version="1.0" standalone="no"?>
<!DOCTYPE svg PUBLIC "-//W3C//DTD SVG 20010904//EN"
 "http://www.w3.org/TR/2001/REC-SVG-20010904/DTD/svg10.dtd">
<svg version="1.0" xmlns="http://www.w3.org/2000/svg"
 width="492.000000pt" height="348.000000pt" viewBox="0 0 492.000000 348.000000"
 preserveAspectRatio="xMidYMid meet">

<g transform="translate(0.000000,348.000000) scale(0.100000,-0.100000)"
fill="#000000" stroke="none">
<path d="M4440 3414 c-19 -2 -316 -8 -660 -14 -344 -6 -717 -13 -830 -15 -113
-2 -677 -7 -1255 -11 -577 -4 -1051 -8 -1053 -9 -1 -1 -11 -58 -22 -126 -11
-68 -27 -160 -35 -204 -8 -44 -24 -141 -35 -215 -11 -74 -23 -142 -25 -150 -3
-8 -18 -100 -35 -205 -38 -239 -75 -458 -176 -1050 -178 -1037 -173 -995 -149
-1102 9 -37 18 -78 20 -90 4 -18 9 -21 28 -14 12 4 47 6 77 4 30 -2 88 0 127
5 49 6 76 5 83 -2 8 -8 13 -7 19 2 6 10 19 11 52 4 49 -10 211 -8 228 2 6 4
11 4 11 0 0 -3 8 0 17 7 9 8 14 9 10 3 -9 -16 41 -22 133 -17 41 2 91 3 110 2
94 -7 1142 1 1122 8 -9 3 -5 13 14 29 17 16 30 22 37 16 7 -5 77 -10 157 -10
159 -1 171 11 21 23 -52 4 -104 13 -116 21 -12 8 -39 13 -61 12 -48 -2 -361
25 -345 30 23 8 10 21 -26 27 -70 12 -83 24 -25 24 28 1 52 6 52 11 0 6 -7 10
-16 10 -9 0 -23 9 -32 20 -14 15 -35 21 -106 26 -60 5 -87 4 -83 -3 4 -6 29
-13 56 -17 62 -8 72 -22 31 -40 -37 -15 -28 -26 40 -45 84 -24 88 -29 26 -29
-33 0 -67 3 -76 8 -9 5 -97 11 -196 14 -280 8 -262 6 -239 16 19 8 19 9 -2 9
-13 1 -23 5 -23 11 0 5 5 9 11 7 6 -1 14 4 16 11 6 14 -33 17 -42 2 -4 -6 -13
-7 -23 -1 -9 5 -36 9 -60 9 -50 1 -82 10 -82 23 0 5 17 9 37 9 47 0 38 8 -18
17 -46 7 -61 7 -281 -2 -84 -4 -139 -2 -142 4 -6 9 50 18 144 24 27 1 45 7 46
15 3 26 5 26 20 7 13 -17 28 -20 102 -22 171 -4 232 -7 232 -13 0 -3 -5 -11
-12 -18 -15 -15 -11 -18 31 -26 29 -5 32 -4 21 9 -11 13 -6 15 31 13 24 -1 49
-7 54 -13 10 -12 121 -35 168 -35 14 0 27 5 29 11 2 7 18 12 36 13 41 1 41 9
-1 24 -44 16 -47 15 -47 -8 0 -30 -23 -34 -61 -11 -27 17 -30 21 -16 27 9 3
17 11 17 16 0 24 33 34 89 27 99 -12 231 -17 225 -8 -3 5 -22 10 -42 10 -39 1
-107 16 -84 18 9 1 11 8 7 21 -6 18 -2 20 41 20 51 0 52 -18 1 -22 -27 -2 -38
-17 -14 -19 63 -7 92 -7 108 1 12 7 20 7 24 0 3 -5 -2 -10 -11 -10 -41 0 3
-15 57 -20 56 -5 84 -24 39 -26 -22 -1 -41 -14 -21 -14 7 0 19 -7 27 -15 9 -8
29 -15 46 -15 42 0 27 -12 -25 -21 l-42 -6 40 -2 c38 -2 94 -19 68 -20 -21 -1
-14 -21 7 -21 11 0 20 5 20 11 0 5 5 7 12 3 7 -4 8 -3 4 5 -9 14 6 20 64 25
25 2 50 5 55 5 30 4 -33 22 -90 26 -36 2 -75 7 -88 11 -21 7 -21 8 8 20 20 9
24 13 11 14 -10 0 -27 11 -38 25 -11 14 -26 25 -34 25 -8 0 -14 4 -14 9 0 13
43 0 55 -16 8 -11 28 -13 85 -9 41 3 89 9 105 15 17 5 47 12 68 16 21 3 35 10
32 15 -3 5 0 12 6 16 8 4 9 3 5 -5 -7 -11 32 -33 47 -24 4 2 7 0 7 -5 0 -5
-15 -13 -32 -17 l-33 -8 35 -7 c19 -4 43 -11 53 -15 12 -5 17 -3 17 10 0 9 5
13 11 9 8 -5 935 -15 1114 -12 6 0 44 1 85 3 100 4 178 -5 184 -20 3 -10 -16
-11 -84 -7 -49 2 -97 1 -107 -3 -10 -4 -52 -7 -93 -7 -41 0 -61 -2 -45 -5 17
-2 34 -9 40 -14 5 -5 18 -9 29 -9 33 0 5 -18 -34 -22 l-35 -4 28 -12 c21 -9
45 -9 94 -2 65 11 198 12 188 2 -7 -7 -89 -12 -237 -15 -64 -1 -120 -5 -124
-10 -4 -4 -28 -7 -53 -7 -64 0 -87 -16 -35 -25 56 -10 62 -13 36 -21 -23 -7
-23 -7 -2 -21 21 -15 66 -15 87 0 19 14 7 25 -22 19 -32 -6 -32 1 0 22 18 12
24 13 23 4 -2 -8 9 -14 25 -16 19 -2 27 1 25 10 -2 10 10 12 47 9 28 -2 58 -7
67 -12 9 -5 26 -9 37 -9 12 0 21 -4 21 -10 0 -5 7 -10 15 -10 24 0 17 -20 -7
-21 -132 -3 -186 -1 -205 5 -22 7 -22 6 -8 -21 21 -39 20 -41 -22 -45 -21 -2
27 -4 107 -4 80 0 130 1 112 3 -20 3 -32 9 -29 16 4 11 50 14 147 9 19 -1 51
-1 71 2 19 2 46 -2 60 -10 16 -9 19 -14 9 -15 -8 -1 14 -5 50 -9 36 -4 72 -4
80 1 11 6 9 8 -9 9 -13 0 -21 3 -17 7 13 13 130 11 141 -3 11 -14 41 -15 288
-15 93 0 137 4 132 11 -3 6 3 10 14 10 12 0 21 -4 21 -10 0 -5 8 -10 18 -10
10 0 23 -5 30 -12 9 -9 13 -8 17 3 4 10 21 13 66 12 33 -2 69 2 79 7 13 7 20
6 23 -3 2 -6 7 20 11 58 4 39 9 93 12 121 2 28 -2 125 -11 215 -9 90 -22 236
-30 324 -8 88 -17 178 -20 200 -3 22 -10 94 -15 160 -5 66 -14 165 -20 220 -5
55 -19 204 -30 330 -11 127 -25 271 -30 320 -4 50 -13 146 -19 215 -14 153
-67 754 -81 903 -5 60 -12 112 -15 118 -6 8 -77 10 -165 3z m-2864 -306 c3 -4
1 -20 -5 -36 -7 -17 -9 -37 -3 -51 8 -22 9 -21 35 18 25 38 29 40 50 28 12 -6
23 -13 25 -13 1 -1 5 -10 7 -20 2 -11 8 -32 12 -47 l9 -29 13 26 c8 14 18 26
23 26 4 0 8 12 9 28 0 26 1 26 11 5 8 -16 6 -72 -5 -205 -16 -180 -17 -183
-44 -203 -15 -11 -34 -20 -42 -20 -29 0 -22 -30 11 -50 58 -33 57 -31 43 -156
-7 -63 -16 -156 -20 -208 -6 -72 -12 -98 -26 -112 -11 -11 -19 -27 -19 -37 0
-10 -5 -23 -11 -29 -9 -9 -8 -15 3 -26 11 -11 14 -37 13 -101 -1 -47 -4 -89
-8 -92 -4 -4 -7 7 -7 24 0 17 -5 34 -10 37 -8 5 -7 11 1 21 6 8 9 17 5 21 -3
3 -6 1 -6 -6 0 -7 -5 -9 -12 -5 -6 4 -8 3 -5 -3 3 -5 0 -21 -7 -35 -8 -15 -10
-31 -5 -39 4 -7 5 -17 2 -23 -3 -5 -1 -6 5 -2 9 5 9 13 2 27 -8 14 -7 19 3 19
18 0 19 -76 2 -90 -9 -7 -15 -7 -19 -1 -4 5 -2 12 4 16 6 4 5 12 -5 21 -8 9
-12 20 -9 26 4 7 2 8 -4 4 -17 -10 -15 10 3 27 12 13 12 17 -5 32 -11 10 -20
14 -20 9 0 -5 -5 -1 -11 9 -5 9 -7 22 -4 27 3 6 1 10 -4 10 -13 0 -15 -57 -2
-65 6 -3 8 -14 6 -25 -2 -11 1 -20 6 -20 6 0 7 -5 3 -12 -4 -7 -3 -8 4 -4 6 3
16 -2 22 -13 7 -14 7 -22 0 -26 -7 -5 -8 -11 -1 -19 6 -7 3 -30 -9 -66 -12
-36 -14 -49 -5 -36 9 11 19 15 27 10 9 -6 9 -3 -1 12 -14 18 -14 18 3 2 22
-19 14 -53 -9 -44 -8 3 -15 0 -16 -7 0 -7 -2 -20 -4 -29 -5 -25 13 -22 37 5
11 12 17 17 14 10 -4 -6 -2 -14 4 -18 17 -10 11 -55 -11 -86 -11 -16 -24 -27
-29 -24 -5 3 -15 -2 -23 -10 -9 -8 -19 -15 -24 -15 -24 0 -30 -23 -12 -41 10
-10 24 -19 29 -19 6 0 10 -6 10 -13 0 -8 11 -19 24 -25 21 -9 24 -17 21 -44
-2 -18 -9 -76 -14 -128 -35 -334 -33 -321 -58 -337 -16 -10 -20 -19 -14 -27 6
-8 1 -11 -17 -12 -26 -1 -326 -4 -367 -3 -11 0 -96 -2 -190 -3 l-170 -3 -50
35 c-27 19 -53 39 -57 45 -8 11 -2 82 12 155 15 74 20 110 29 203 9 97 6 92
103 149 32 18 58 38 58 44 0 6 -22 25 -50 43 -27 18 -52 36 -54 40 -3 5 -1 35
4 67 12 72 16 105 26 214 8 94 12 132 13 140 1 3 32 25 71 50 38 25 70 50 70
55 0 6 -18 21 -41 35 -22 14 -44 32 -48 40 -8 15 21 272 42 370 12 52 14 55
64 79 28 14 56 35 62 47 11 24 4 64 -11 64 -5 0 -6 -4 -3 -10 3 -5 0 -10 -7
-10 -10 0 -9 -3 2 -10 8 -5 11 -12 8 -16 -9 -8 -74 32 -81 50 -3 8 0 45 8 82
7 38 18 110 25 159 7 50 17 97 22 105 8 12 8 11 4 -4 -5 -13 -2 -17 9 -12 8 3
15 1 15 -5 0 -6 5 -7 10 -4 6 4 6 -4 -1 -19 -7 -14 -17 -22 -25 -19 -18 7 -19
-58 -2 -75 18 -18 24 -15 22 16 -1 15 4 36 9 47 6 11 10 23 9 27 -1 3 6 5 16
3 9 -2 21 -4 25 -4 5 -1 6 -5 2 -10 -3 -5 -1 -13 5 -16 8 -5 7 -12 -2 -23 -7
-10 -8 -14 -4 -10 5 4 15 3 22 -3 17 -14 13 13 -6 35 -11 15 -11 18 6 22 16 4
19 12 16 45 -3 25 -8 37 -16 33 -6 -4 -4 0 4 9 10 10 25 14 43 10 23 -5 26 -8
15 -21 -10 -12 -10 -14 0 -8 7 4 12 2 12 -7 0 -8 10 -21 21 -29 21 -13 21 -15
4 -32 -13 -12 -21 -14 -28 -7 -14 14 -30 14 -22 1 3 -5 2 -10 -3 -10 -6 0 -8
-8 -5 -19 3 -13 11 -17 24 -14 20 6 39 -24 22 -36 -10 -6 -9 -98 1 -109 3 -3
-1 -13 -9 -23 -16 -17 -16 -53 0 -79 8 -13 7 -13 -9 -1 -21 18 -50 70 -39 73
5 0 14 2 22 2 10 1 14 18 15 64 1 34 -3 62 -7 62 -5 0 -6 4 -3 8 3 5 -1 9 -9
9 -10 0 -11 -5 -5 -17 5 -10 7 -20 4 -23 -3 -3 -1 -14 4 -24 6 -11 6 -27 1
-42 -9 -23 -10 -24 -25 -5 -15 18 -15 18 -11 -3 3 -12 -1 -28 -9 -34 -11 -9
-12 -15 -2 -28 10 -13 10 -14 -2 -3 -14 12 -50 17 -50 6 0 -4 12 -26 28 -50
17 -27 34 -43 47 -43 16 -1 17 1 5 9 -8 5 -11 12 -8 16 11 10 40 -4 33 -16 -3
-5 -2 -10 2 -10 13 0 34 40 28 50 -3 6 1 24 9 42 9 18 17 50 18 70 2 21 9 40
16 43 6 2 12 12 12 20 0 9 4 14 9 10 5 -3 12 -1 16 5 3 5 1 10 -6 10 -9 0 -9
3 0 14 9 11 9 15 -1 18 -8 3 -5 9 10 17 l24 13 -4 -84 -3 -83 35 0 35 0 8 99
c5 54 6 105 3 112 -6 15 -75 20 -92 7 -5 -5 -1 -1 8 9 10 9 18 21 18 27 0 19
23 60 31 55 5 -3 21 2 36 11 16 8 21 15 13 14 -27 -2 -40 1 -40 10 0 10 205 9
216 -1z m104 -8 c22 -11 40 -23 40 -26 0 -2 -9 0 -21 7 -12 6 -29 9 -40 6 -19
-5 -44 15 -32 26 9 10 9 9 53 -13z m1669 -7 c16 -13 35 -23 40 -23 23 0 28
-45 23 -231 l-4 -195 -34 -24 c-40 -27 -40 -39 3 -60 18 -8 37 -25 42 -38 7
-14 11 -103 11 -223 l0 -199 -29 -30 c-15 -17 -33 -30 -40 -30 -22 0 -10 -21
24 -41 20 -12 40 -29 45 -39 11 -20 14 -390 4 -463 -5 -33 -10 -44 -20 -40 -9
3 -14 -2 -14 -16 0 -12 -9 -30 -20 -41 -19 -19 -19 -19 10 -40 l30 -21 0 -234
0 -234 -29 -30 c-15 -16 -39 -32 -52 -37 -13 -4 -179 -7 -369 -5 l-345 3 -57
35 -58 36 0 71 c0 39 5 145 11 236 l11 165 32 27 c17 15 46 33 64 40 17 6 32
15 32 19 0 4 -23 22 -51 40 l-52 33 6 70 c4 39 9 134 12 211 7 140 17 185 42
185 7 0 13 4 13 9 0 5 15 14 32 20 l33 12 -30 24 c-17 13 -38 27 -47 30 -22 8
-41 66 -34 107 2 18 8 103 11 189 4 86 10 161 14 167 3 5 21 18 40 29 48 27
48 39 2 63 l-41 20 0 63 c0 34 5 125 10 201 9 118 13 143 30 158 10 10 22 18
26 18 3 0 16 8 29 18 22 17 47 19 318 18 290 -1 296 -1 326 -23z m-2194 7 c-4
-6 -11 -8 -16 -5 -5 4 -9 1 -9 -4 0 -6 -5 -11 -11 -11 -6 0 -17 -7 -25 -15 -9
-8 -11 -15 -6 -15 16 0 21 -38 5 -44 -8 -3 -11 -1 -8 4 3 6 0 10 -7 11 -10 0
-10 2 -1 6 10 3 9 8 -3 20 -21 21 -14 34 27 49 43 16 62 17 54 4z m65 0 c0 -5
-4 -10 -9 -10 -6 0 -13 5 -16 10 -3 6 1 10 9 10 9 0 16 -4 16 -10z m70 6 c0
-2 -7 -6 -15 -10 -8 -3 -15 -1 -15 4 0 6 7 10 15 10 8 0 15 -2 15 -4z m362
-1420 c-5 -84 -17 -87 -16 -3 1 74 2 80 12 74 4 -3 5 -35 4 -71z m1388 -928
c0 -11 -108 -10 -115 1 -3 6 19 9 55 8 33 -1 60 -5 60 -9z m209 -4 c17 -4 31
-9 31 -13 0 -11 -74 -4 -78 8 -4 13 3 13 47 5z m86 -4 c3 -5 1 -10 -4 -10 -6
0 -11 5 -11 10 0 6 2 10 4 10 3 0 8 -4 11 -10z m-720 -20 c18 -8 18 -9 -5 -9
-14 0 -32 4 -40 9 -12 8 -12 10 5 9 11 0 29 -4 40 -9z m-128 -6 c-3 -3 -12 -4
-19 -1 -8 3 -5 6 6 6 11 1 17 -2 13 -5z m198 -4 c3 -5 -1 -10 -9 -10 -9 0 -16
5 -16 10 0 6 4 10 9 10 6 0 13 -4 16 -10z m200 0 c-3 -5 -17 -10 -30 -10 -13
0 -27 5 -30 10 -4 6 8 10 30 10 22 0 34 -4 30 -10z m165 6 c0 -3 -4 -8 -10
-11 -5 -3 -10 -1 -10 4 0 6 5 11 10 11 6 0 10 -2 10 -4z m-982 -38 c-5 -16
-43 -22 -66 -12 -16 7 2 13 61 23 5 0 7 -5 5 -11z m302 0 c0 -4 -4 -8 -9 -8
-6 0 -12 4 -15 8 -3 5 1 9 9 9 8 0 15 -4 15 -9z m-232 -5 c-10 -2 -26 -2 -35
0 -10 3 -2 5 17 5 19 0 27 -2 18 -5z m478 -8 c18 -14 18 -14 -6 -9 -14 3 -31
6 -37 6 -7 1 -13 5 -13 10 0 13 35 9 56 -7z m137 8 c-7 -2 -19 -2 -25 0 -7 3
-2 5 12 5 14 0 19 -2 13 -5z m977 -15 c0 -6 -3 -8 -7 -5 -3 4 -12 2 -20 -4
-10 -9 -13 -8 -13 4 0 16 19 28 33 20 4 -2 7 -9 7 -15z m-1225 3 c3 -6 -15
-13 -39 -16 -25 -4 -47 -13 -50 -21 -6 -16 -63 -19 -85 -5 -12 8 -9 11 12 16
15 4 34 5 42 2 8 -4 21 0 28 8 8 7 27 15 43 18 16 2 32 5 36 6 4 0 9 -3 13 -8z
m1295 -1 c0 -5 -2 -10 -4 -10 -3 0 -8 5 -11 10 -3 6 -1 10 4 10 6 0 11 -4 11
-10z m-1990 -36 c0 -8 -19 -13 -24 -6 -3 5 1 9 9 9 8 0 15 -2 15 -3z m280 -18
c0 -2 -11 -3 -25 -3 -24 0 -31 7 -19 20 6 6 44 -9 44 -17z m467 -18 c-2 -7
-11 -12 -19 -10 -9 1 -21 -4 -27 -12 -7 -8 -19 -12 -27 -9 -10 4 -5 11 18 23
40 21 61 24 55 8z m-1002 -56 c-3 -3 -11 0 -18 7 -9 10 -8 11 6 5 10 -3 15 -9
12 -12z m375 8 c0 -5 -9 -10 -19 -10 -11 0 -23 5 -26 10 -4 6 5 10 19 10 14 0
26 -4 26 -10z m197 -1 c-14 -8 -22 -8 -30 0 -8 8 -3 11 19 11 25 -1 27 -2 11
-11z m388 -10 c-8 -12 -35 -12 -35 0 0 11 22 20 33 14 4 -2 5 -9 2 -14z
m-1552 -16 c-7 -2 -19 -2 -25 0 -7 3 -2 5 12 5 14 0 19 -2 13 -5z m3159 -31
c4 -4 -9 -8 -30 -9 -20 -1 -58 -3 -84 -6 -59 -5 -120 4 -125 19 -4 13 226 9
239 -4z m-2788 0 c3 -5 19 -7 36 -4 18 2 30 0 30 -7 0 -16 -73 -13 -96 4 -19
14 -19 14 3 15 12 0 24 -4 27 -8z m101 -12 c3 -5 1 -10 -4 -10 -6 0 -11 5 -11
10 0 6 2 10 4 10 3 0 8 -4 11 -10z m2315 -36 c50 -4 100 -15 105 -24 2 -4 -20
-3 -50 2 -57 9 -108 15 -137 17 -10 0 -18 6 -18 12 0 7 11 8 33 3 17 -4 48 -8
67 -10z m-123 -20 c-3 -3 -12 -4 -19 -1 -8 3 -5 6 6 6 11 1 17 -2 13 -5z m443
-34 c12 -8 9 -10 -12 -10 -15 0 -30 5 -33 10 -8 13 25 13 45 0z m-2902 -13 c7
0 11 -6 8 -13 -8 -20 3 -23 97 -25 48 -1 85 -4 83 -8 -4 -6 -37 -6 -234 0 -74
2 -92 5 -88 16 3 8 2 12 -2 9 -4 -2 -14 -1 -22 5 -12 7 -10 9 8 9 12 0 22 4
22 9 0 5 26 7 58 4 31 -3 63 -6 70 -6z m-920 -18 c9 -1 1 -5 -18 -8 -19 -4
-39 -5 -44 -3 -13 7 17 22 32 17 8 -3 21 -6 30 -6z m649 5 c-3 -3 -12 -4 -19
-1 -8 3 -5 6 6 6 11 1 17 -2 13 -5z m53 -2 c0 -5 -7 -9 -15 -9 -8 0 -12 4 -9
9 3 4 9 8 15 8 5 0 9 -4 9 -8z m3637 2 c-3 -3 -12 -4 -19 -1 -8 3 -5 6 6 6 11
1 17 -2 13 -5z m-280 -26 c43 -18 143 -36 149 -26 3 5 2 8 -3 7 -11 -3 -67 21
-61 26 8 9 203 -20 201 -30 -3 -12 -14 -13 -71 -4 -25 3 -45 2 -49 -4 -3 -6
-1 -7 5 -3 6 3 13 2 17 -4 6 -10 -5 -13 -62 -12 -18 0 -35 -4 -39 -9 -3 -5 -2
-9 3 -8 4 1 17 1 28 0 19 -2 19 -2 2 -12 -14 -8 -23 -7 -37 6 -15 13 -29 15
-75 10 -31 -4 -54 -9 -52 -12 4 -3 37 -9 70 -12 4 -1 7 -6 7 -12 0 -8 -18 -9
-57 -5 -32 4 -69 6 -82 6 -14 0 -28 5 -32 12 -4 7 -25 18 -46 25 -36 12 -34
12 37 8 68 -5 73 -4 56 10 -11 8 -27 15 -36 15 -8 0 -21 9 -28 20 -12 19 -10
20 57 20 38 0 82 -5 98 -12z m-3427 -8 c0 -5 -5 -10 -11 -10 -5 0 -7 5 -4 10
3 6 8 10 11 10 2 0 4 -4 4 -10z m-672 -25 c-3 -3 -9 2 -12 12 -6 14 -5 15 5 6
7 -7 10 -15 7 -18z m1624 12 c78 -2 98 -12 31 -16 -26 -1 -50 -7 -54 -13 -4
-7 -23 -6 -60 1 -30 6 -97 13 -149 14 -52 1 -104 8 -115 14 -16 9 13 11 130 6
83 -2 180 -5 217 -6z m2099 -18 c29 -15 23 -29 -14 -29 -23 0 -41 8 -56 24
l-23 25 37 -5 c20 -2 46 -9 56 -15z m-1742 -14 c13 -13 -19 -20 -92 -19 -109
2 -147 5 -153 16 -3 4 -10 5 -16 2 -7 -4 -8 -2 -4 4 6 10 254 7 265 -3z
m-1523 -26 c3 -5 -8 -8 -24 -7 -16 1 -29 7 -29 13 0 13 44 8 53 -6z m523 5 c2
-2 -10 -4 -27 -4 -18 0 -32 5 -32 10 0 9 47 4 59 -6z m3555 -22 c3 -5 -1 -9
-9 -9 -8 0 -12 4 -9 9 3 4 7 8 9 8 2 0 6 -4 9 -8z"/>
<path d="M1532 3091 c-11 -6 -10 -10 0 -19 11 -8 14 -7 15 9 2 22 2 21 -15 10z"/>
<path d="M1491 3054 c0 -11 3 -14 6 -6 3 7 2 16 -1 19 -3 4 -6 -2 -5 -13z"/>
<path d="M1340 3040 c0 -5 5 -10 11 -10 5 0 7 5 4 10 -3 6 -8 10 -11 10 -2 0
-4 -4 -4 -10z"/>
<path d="M1189 2987 c6 -8 7 -18 3 -22 -4 -5 -1 -5 6 -1 10 6 10 11 1 22 -6 8
-14 14 -16 14 -3 0 0 -6 6 -13z"/>
<path d="M1420 2976 c0 -9 5 -16 10 -16 6 0 10 4 10 9 0 6 -4 13 -10 16 -5 3
-10 -1 -10 -9z"/>
<path d="M1130 2851 c0 -29 15 -33 18 -5 1 13 -3 24 -8 24 -6 0 -10 -9 -10
-19z"/>
<path d="M1680 2865 c-10 -53 -10 -60 1 -42 6 10 8 25 6 35 -3 9 -6 13 -7 7z"/>
<path d="M1100 2835 c0 -14 2 -25 4 -25 2 0 6 11 8 25 3 14 1 25 -3 25 -5 0
-9 -11 -9 -25z"/>
<path d="M1400 2824 c0 -8 5 -12 10 -9 6 4 8 11 5 16 -9 14 -15 11 -15 -7z"/>
<path d="M980 2790 c0 -11 9 -39 20 -61 18 -34 19 -40 5 -45 -8 -3 -12 -10 -9
-16 3 -5 12 -1 19 9 15 20 12 86 -4 91 -6 2 -11 10 -11 17 0 8 -4 17 -10 20
-5 3 -10 -3 -10 -15z"/>
<path d="M1054 2770 c3 -14 6 -28 6 -32 0 -5 4 -8 9 -8 13 0 5 40 -10 54 -9 8
-10 5 -5 -14z"/>
<path d="M967 2723 c-4 -3 -7 -18 -7 -32 1 -24 2 -24 14 -9 7 10 17 14 22 10
4 -4 2 2 -6 13 -8 11 -15 21 -16 23 0 1 -4 -1 -7 -5z"/>
<path d="M1640 2645 c0 -8 4 -15 10 -15 5 0 7 7 4 15 -4 8 -8 15 -10 15 -2 0
-4 -7 -4 -15z"/>
<path d="M1222 2443 c-5 -10 -12 -39 -15 -65 -6 -45 -5 -48 16 -49 65 -2 92
-16 81 -42 -4 -12 -21 -17 -62 -19 -49 -3 -57 -6 -57 -23 0 -18 8 -20 61 -23
54 -3 65 0 93 23 57 48 34 125 -37 125 -25 0 -32 4 -32 20 0 16 7 20 38 20 41
0 63 15 55 36 -4 10 -24 14 -69 14 -50 0 -65 -4 -72 -17z"/>
<path d="M1486 2004 c-5 -12 -1 -23 8 -30 9 -6 16 -19 16 -28 0 -9 5 -16 11
-16 7 0 8 7 4 18 -4 9 -8 22 -9 27 -1 6 -7 18 -12 29 -11 18 -11 18 -18 0z"/>
<path d="M1394 1968 c-14 -18 -17 -68 -5 -68 16 0 23 18 10 26 -9 5 -8 10 4
19 9 6 12 16 8 24 -6 9 -10 9 -17 -1z"/>
<path d="M1452 1907 c-7 -18 -11 -44 -11 -58 1 -20 2 -21 6 -4 3 11 12 29 19
40 15 21 19 55 6 55 -4 0 -13 -15 -20 -33z"/>
<path d="M1175 1873 c-66 -13 -105 -53 -105 -110 0 -30 35 -73 58 -73 17 0 15
-15 -3 -30 -23 -19 -18 -40 9 -40 18 0 40 18 80 66 46 54 56 72 56 102 0 20
-4 42 -8 48 -12 18 -65 41 -87 37z m32 -69 c3 -8 0 -27 -6 -40 -9 -20 -17 -25
-39 -22 -51 6 -38 78 15 78 13 0 26 -7 30 -16z"/>
<path d="M1515 1820 c10 -11 20 -20 23 -20 3 0 -3 9 -13 20 -10 11 -20 20 -23
20 -3 0 3 -9 13 -20z"/>
<path d="M1477 1759 c7 -7 15 -10 18 -7 3 3 -2 9 -12 12 -14 6 -15 5 -6 -5z"/>
<path d="M820 1721 c0 -6 4 -12 9 -15 5 -4 8 -17 6 -31 -2 -20 1 -23 11 -14 7
6 19 7 26 3 7 -4 10 -4 6 1 -4 4 -2 15 5 23 9 13 9 14 0 8 -14 -8 -57 17 -46
27 3 4 1 7 -5 7 -7 0 -12 -4 -12 -9z"/>
<path d="M1537 1696 c-4 -10 -1 -13 8 -9 8 3 12 9 9 14 -7 12 -11 11 -17 -5z"/>
<path d="M890 1641 c0 -11 4 -22 9 -25 12 -8 34 21 26 34 -11 17 -35 11 -35
-9z"/>
<path d="M875 1601 c-3 -5 -2 -12 3 -15 5 -3 9 1 9 9 0 17 -3 19 -12 6z"/>
<path d="M980 1236 c-27 -10 -35 -18 -35 -37 0 -21 4 -24 33 -21 29 2 32 0 28
-20 -11 -51 -26 -171 -22 -175 9 -9 66 -11 71 -3 5 8 35 233 35 263 0 11 -71
7 -110 -7z"/>
<path d="M1226 1234 c-13 -35 -7 -44 31 -44 l37 0 -32 -29 c-17 -17 -32 -34
-32 -38 1 -21 19 -34 41 -28 14 3 32 0 43 -8 16 -11 17 -17 6 -36 -10 -20 -18
-22 -67 -19 -56 3 -56 3 -69 -32 -7 -19 -13 -47 -13 -62 -1 -15 -5 -30 -11
-33 -5 -3 -10 -16 -10 -28 0 -15 6 -9 21 22 11 25 17 51 15 58 -3 8 2 13 12
13 118 3 135 7 164 39 37 41 38 92 3 125 l-25 23 25 11 c18 9 25 19 25 41 0
35 -13 41 -95 41 -48 0 -64 -4 -69 -16z"/>
<path d="M3110 3064 c6 -6 7 -14 3 -17 -3 -4 -3 -7 0 -7 3 0 11 9 17 19 8 17
7 20 -9 18 -14 -1 -17 -5 -11 -13z"/>
<path d="M3228 3073 c7 -3 16 -2 19 1 4 3 -2 6 -13 5 -11 0 -14 -3 -6 -6z"/>
<path d="M3120 3009 c7 -11 14 -18 17 -15 8 8 -5 36 -17 36 -7 0 -7 -6 0 -21z"/>
<path d="M3359 3004 c-1 -10 0 -23 1 -29 2 -5 3 -24 4 -42 0 -17 3 -30 7 -27
7 4 3 104 -6 112 -3 3 -6 -3 -6 -14z"/>
<path d="M2956 2982 c-26 -5 -16 -46 12 -50 26 -4 27 -10 7 -36 -22 -29 -19
-34 25 -41 46 -8 57 -19 39 -41 -9 -11 -27 -14 -58 -12 -41 2 -46 0 -49 -20
-3 -21 0 -22 65 -22 56 0 73 4 91 20 30 28 30 83 0 104 -20 15 -21 16 -5 34
19 21 22 48 6 58 -12 7 -105 11 -133 6z"/>
<path d="M3223 2935 c0 -8 4 -12 9 -9 5 3 6 10 3 15 -9 13 -12 11 -12 -6z"/>
<path d="M2967 2433 c-4 -3 -7 -15 -7 -25 0 -15 8 -18 51 -18 48 0 50 -1 44
-22 -4 -13 -22 -51 -41 -86 -37 -68 -37 -82 2 -82 21 0 31 14 76 104 64 129
61 136 -47 136 -39 0 -75 -3 -78 -7z"/>
<path d="M2860 1856 c-49 -10 -55 -14 -55 -36 0 -21 4 -25 28 -22 l27 3 0 -96
0 -95 35 0 35 0 2 63 c3 157 2 190 -7 193 -5 1 -35 -3 -65 -10z"/>
<path d="M3082 1845 c-42 -18 -41 -51 1 -48 l27 2 0 -95 0 -94 34 0 c42 0 46
11 46 148 l0 102 -37 0 c-21 -1 -53 -7 -71 -15z"/>
<path d="M3003 1244 c-9 -4 -13 -29 -13 -75 l0 -69 39 0 c22 0 46 -3 55 -6 19
-7 22 -64 4 -65 -7 0 -33 -1 -58 -2 -38 -2 -45 -5 -48 -24 -3 -22 0 -23 65
-23 44 0 76 5 89 15 23 16 37 64 28 99 -6 27 -52 56 -89 56 -22 0 -26 4 -23
23 2 17 9 22 28 20 45 -4 70 6 70 27 0 11 -1 20 -2 21 -19 4 -136 6 -145 3z"/>
<path d="M2750 1226 c-48 -17 -50 -52 -3 -49 l32 3 3 -103 c3 -94 5 -102 23
-103 41 -1 45 13 45 142 l0 124 -32 -1 c-18 0 -49 -6 -68 -13z"/>
<path d="M2229 495 c41 -18 42 -18 35 0 -4 9 -19 15 -38 15 l-31 -1 34 -14z"/>
<path d="M2150 477 c14 -6 27 -15 30 -19 9 -12 91 -38 101 -32 14 8 11 24 -5
24 -7 0 -42 9 -76 20 -69 22 -88 25 -50 7z"/>
<path d="M2299 473 c13 -3 26 -13 28 -24 4 -12 14 -19 32 -19 l26 -1 -25 -14
c-14 -8 -20 -14 -14 -15 5 0 19 -7 30 -15 18 -15 15 -15 -36 -10 -51 5 -54 5
-36 -10 11 -8 25 -15 30 -15 6 0 40 -5 75 -10 74 -10 101 -2 50 16 -27 10 -29
13 -11 13 27 1 30 21 2 21 -12 0 -25 10 -32 24 -6 14 -25 30 -42 36 -17 6 -39
16 -48 21 -10 5 -26 8 -35 8 -11 -1 -9 -3 6 -6z"/>
<path d="M2428 473 c7 -3 16 -2 19 1 4 3 -2 6 -13 5 -11 0 -14 -3 -6 -6z"/>
<path d="M3085 470 c11 -5 29 -9 40 -9 17 -1 17 1 5 9 -8 5 -26 9 -40 9 -23 0
-23 -1 -5 -9z"/>
<path d="M2762 458 c5 -14 61 -23 86 -13 14 5 14 7 2 15 -23 15 -92 12 -88 -2z"/>
<path d="M2946 462 c20 -17 85 -33 107 -26 20 7 20 8 -13 20 -39 14 -109 19
-94 6z"/>
<path d="M3370 460 c0 -5 -3 -9 -7 -9 -5 1 -27 1 -50 0 -32 -1 -43 -5 -43 -17
0 -14 -7 -15 -45 -10 -58 9 -60 -9 -2 -19 52 -9 100 -6 108 7 4 5 31 13 60 17
l54 7 -35 8 c-30 8 -32 10 -15 17 19 7 19 8 -2 8 -13 1 -23 -3 -23 -9z"/>
<path d="M2670 450 c0 -5 8 -10 18 -10 10 0 24 -6 30 -12 10 -10 15 -10 22 2
16 25 11 30 -30 30 -22 0 -40 -4 -40 -10z"/>
<path d="M2895 440 c3 -5 15 -10 26 -10 10 0 19 5 19 10 0 6 -12 10 -26 10
-14 0 -23 -4 -19 -10z"/>
<path d="M2528 433 c6 -2 18 -2 25 0 6 3 1 5 -13 5 -14 0 -19 -2 -12 -5z"/>
<path d="M1333 410 c1 -23 13 -28 84 -32 92 -5 58 23 -54 45 -27 5 -31 3 -30
-13z"/>
<path d="M2968 423 c7 -3 16 -2 19 1 4 3 -2 6 -13 5 -11 0 -14 -3 -6 -6z"/>
<path d="M2605 410 c3 -5 23 -10 43 -10 28 0 33 3 22 10 -20 13 -73 13 -65 0z"/>
<path d="M2818 413 c7 -3 16 -2 19 1 4 3 -2 6 -13 5 -11 0 -14 -3 -6 -6z"/>
<path d="M3028 413 c6 -2 18 -2 25 0 6 3 1 5 -13 5 -14 0 -19 -2 -12 -5z"/>
<path d="M1585 390 c3 -5 8 -10 11 -10 2 0 4 5 4 10 0 6 -5 10 -11 10 -5 0 -7
-4 -4 -10z"/>
<path d="M2860 390 c0 -13 16 -15 80 -12 33 2 58 7 55 12 -6 10 -135 10 -135
0z"/>
<path d="M3145 377 c-32 -34 -65 -51 -78 -38 -14 14 -50 15 -42 1 3 -5 15 -10
25 -10 10 0 27 -12 37 -26 19 -26 60 -40 151 -51 27 -3 42 -1 42 6 0 6 -9 11
-20 11 -32 0 -23 20 13 27 17 4 35 6 40 5 4 -1 7 2 7 7 0 12 -95 61 -120 61
-11 0 -19 5 -17 11 4 21 -18 19 -38 -4z"/>
<path d="M2660 380 c-34 -8 -122 -37 -148 -49 -35 -16 -10 -26 73 -31 77 -5
95 -3 123 13 17 10 30 23 26 28 -7 13 41 11 87 -2 34 -11 79 -6 67 7 -8 7
-160 44 -178 43 -8 -1 -31 -5 -50 -9z"/>
<path d="M2190 352 c0 -14 25 -22 73 -22 30 0 38 3 30 11 -15 15 -103 25 -103
11z"/>
<path d="M2919 321 c12 -8 9 -11 -13 -17 -20 -5 -24 -9 -14 -15 18 -12 78 -11
78 0 0 5 15 13 33 17 28 6 29 8 12 15 -29 11 -114 11 -96 0z"/>
<path d="M3520 326 c0 -2 9 -6 20 -9 11 -3 18 -1 14 4 -5 9 -34 13 -34 5z"/>
<path d="M3356 283 c-3 -3 0 -14 7 -24 12 -19 67 -28 67 -11 0 10 -68 41 -74
35z"/>
<path d="M3295 260 c3 -5 11 -10 16 -10 6 0 7 5 4 10 -3 6 -11 10 -16 10 -6 0
-7 -4 -4 -10z"/>
<path d="M2646 252 c-4 -7 -30 -12 -59 -12 -29 0 -58 -4 -66 -9 -9 -6 24 -9
87 -8 64 1 105 6 113 14 17 17 -18 30 -42 15 -13 -8 -19 -8 -21 0 -3 9 -6 9
-12 0z"/>
<path d="M2309 245 c-3 -2 -21 -5 -41 -7 -43 -2 -44 -16 -5 -41 29 -18 47 -15
47 7 0 9 14 13 40 13 39 0 51 -9 30 -22 -19 -12 -1 -22 37 -19 21 1 57 2 81 3
49 1 48 16 -1 29 -18 5 -31 13 -30 18 1 6 -13 8 -32 6 -18 -2 -36 1 -39 7 -7
11 -78 16 -87 6z"/>
<path d="M2815 230 c-3 -5 3 -10 15 -10 12 0 18 5 15 10 -3 6 -10 10 -15 10
-5 0 -12 -4 -15 -10z"/>
<path d="M2893 233 c9 -2 23 -2 30 0 6 3 -1 5 -18 5 -16 0 -22 -2 -12 -5z"/>
<path d="M2985 229 c-4 -5 8 -9 26 -9 35 0 35 8 1 15 -12 2 -24 0 -27 -6z"/>
<path d="M3768 232 c-27 -2 -48 -7 -48 -12 0 -7 109 -2 118 5 8 6 -28 10 -70
7z"/>
<path d="M3098 223 c7 -3 16 -2 19 1 4 3 -2 6 -13 5 -11 0 -14 -3 -6 -6z"/>
<path d="M3308 223 c7 -3 16 -2 19 1 4 3 -2 6 -13 5 -11 0 -14 -3 -6 -6z"/>
<path d="M3348 223 c6 -2 18 -2 25 0 6 3 1 5 -13 5 -14 0 -19 -2 -12 -5z"/>
<path d="M4070 207 c0 -22 10 -26 41 -15 40 14 37 28 -6 28 -22 0 -35 -5 -35
-13z"/>
</g>
</svg>
